<svg width="22" height="22" viewBox="0 0 22 22" fill="none" xmlns="http://www.w3.org/2000/svg">
<path d="M21.5958 17.2331L16.5758 12.6688C16.3385 12.4531 16.0267 12.3381 15.7061 12.348C15.3856 12.3579 15.0815 12.492 14.858 12.7219L11.9028 15.7611C11.1914 15.6253 9.76136 15.1795 8.2893 13.7111C6.81725 12.2378 6.37143 10.8041 6.23929 10.0977L9.27603 7.14125C9.50623 6.91789 9.6405 6.61372 9.65041 6.29311C9.66033 5.9725 9.5451 5.66062 9.32913 5.42346L4.766 0.404679C4.54994 0.166777 4.24965 0.0224713 3.9289 0.00241033C3.60815 -0.0176507 3.29222 0.0881131 3.04819 0.297239L0.368362 2.59545C0.154854 2.80974 0.0274177 3.09493 0.0102278 3.39693C-0.00829643 3.70566 -0.361491 11.019 5.30938 16.6922C10.2566 21.6382 16.4535 22 18.1602 22C18.4097 22 18.5628 21.9926 18.6036 21.9901C18.9055 21.9732 19.1906 21.8452 19.4038 21.6308L21.7008 18.9497C21.9108 18.7065 22.0173 18.3908 21.9977 18.0701C21.9781 17.7493 21.8339 17.449 21.5958 17.2331Z" fill="black"/>
</svg>
